<mxfile host="app.diagrams.net" agent="Mozilla/5.0 (Windows NT 10.0; Win64; x64) AppleWebKit/537.36 (KHTML, like Gecko) Chrome/130.0.0.0 Safari/537.36" version="24.8.4">
  <diagram name="Strona-1" id="AKng_ESbKjumxK6DU_Bs">
    <mxGraphModel dx="2501" dy="1915" grid="1" gridSize="10" guides="1" tooltips="1" connect="1" arrows="1" fold="1" page="1" pageScale="1" pageWidth="827" pageHeight="1169" math="0" shadow="0">
      <root>
        <mxCell id="0" />
        <mxCell id="1" parent="0" />
        <mxCell id="fPY2Tthy9RuAqfQ_gG5_-1" value="Projekt: Pipeline Danych&lt;br&gt;Etapy:&amp;nbsp;&lt;br&gt;0. Znalezienie datasetu&lt;div&gt;1. Zaprojetowanie pipeline&#39;u&lt;br&gt;2. Pobranie próbki&lt;br&gt;3. procesowanie próbki&lt;br&gt;4. procesowanie źródła&lt;div&gt;5. prezentacja (dane, jakie pytania zostały zadane do danych, jakie odpowiedzi - na podstawie warstwy złotej i wykresów)&lt;/div&gt;&lt;/div&gt;" style="text;html=1;align=left;verticalAlign=middle;whiteSpace=wrap;rounded=0;" parent="1" vertex="1">
          <mxGeometry x="20" y="-140" width="180" height="190" as="geometry" />
        </mxCell>
        <mxCell id="fPY2Tthy9RuAqfQ_gG5_-4" style="edgeStyle=orthogonalEdgeStyle;rounded=0;orthogonalLoop=1;jettySize=auto;html=1;" parent="1" source="fPY2Tthy9RuAqfQ_gG5_-2" target="fPY2Tthy9RuAqfQ_gG5_-3" edge="1">
          <mxGeometry relative="1" as="geometry" />
        </mxCell>
        <mxCell id="fPY2Tthy9RuAqfQ_gG5_-2" value="dane źródłowe" style="rounded=0;whiteSpace=wrap;html=1;fillColor=#d5e8d4;strokeColor=#82b366;" parent="1" vertex="1">
          <mxGeometry x="20" y="150" width="120" height="60" as="geometry" />
        </mxCell>
        <mxCell id="fPY2Tthy9RuAqfQ_gG5_-7" style="edgeStyle=orthogonalEdgeStyle;rounded=0;orthogonalLoop=1;jettySize=auto;html=1;" parent="1" source="fPY2Tthy9RuAqfQ_gG5_-3" target="fPY2Tthy9RuAqfQ_gG5_-6" edge="1">
          <mxGeometry relative="1" as="geometry" />
        </mxCell>
        <mxCell id="fPY2Tthy9RuAqfQ_gG5_-3" value="pobranie próbki" style="rounded=1;whiteSpace=wrap;html=1;fillColor=#fff2cc;strokeColor=#d6b656;" parent="1" vertex="1">
          <mxGeometry x="280" y="150" width="120" height="60" as="geometry" />
        </mxCell>
        <mxCell id="fPY2Tthy9RuAqfQ_gG5_-12" style="edgeStyle=orthogonalEdgeStyle;rounded=0;orthogonalLoop=1;jettySize=auto;html=1;" parent="1" source="fPY2Tthy9RuAqfQ_gG5_-6" target="fPY2Tthy9RuAqfQ_gG5_-11" edge="1">
          <mxGeometry relative="1" as="geometry" />
        </mxCell>
        <mxCell id="fPY2Tthy9RuAqfQ_gG5_-6" value="miarodajna próbka" style="rounded=0;whiteSpace=wrap;html=1;fillColor=#d5e8d4;strokeColor=#82b366;" parent="1" vertex="1">
          <mxGeometry x="470" y="150" width="120" height="60" as="geometry" />
        </mxCell>
        <mxCell id="fPY2Tthy9RuAqfQ_gG5_-14" style="edgeStyle=orthogonalEdgeStyle;rounded=0;orthogonalLoop=1;jettySize=auto;html=1;" parent="1" source="fPY2Tthy9RuAqfQ_gG5_-11" target="fPY2Tthy9RuAqfQ_gG5_-13" edge="1">
          <mxGeometry relative="1" as="geometry" />
        </mxCell>
        <mxCell id="fPY2Tthy9RuAqfQ_gG5_-11" value="załadowanie do warstwy brązowej" style="rounded=1;whiteSpace=wrap;html=1;fillColor=#fff2cc;strokeColor=#d6b656;" parent="1" vertex="1">
          <mxGeometry x="660" y="150" width="120" height="60" as="geometry" />
        </mxCell>
        <mxCell id="fPY2Tthy9RuAqfQ_gG5_-17" style="edgeStyle=orthogonalEdgeStyle;rounded=0;orthogonalLoop=1;jettySize=auto;html=1;" parent="1" source="fPY2Tthy9RuAqfQ_gG5_-13" target="fPY2Tthy9RuAqfQ_gG5_-16" edge="1">
          <mxGeometry relative="1" as="geometry">
            <Array as="points">
              <mxPoint x="1060" y="180" />
              <mxPoint x="1060" y="130" />
            </Array>
          </mxGeometry>
        </mxCell>
        <mxCell id="fPY2Tthy9RuAqfQ_gG5_-24" style="edgeStyle=orthogonalEdgeStyle;rounded=0;orthogonalLoop=1;jettySize=auto;html=1;entryX=0;entryY=0.5;entryDx=0;entryDy=0;" parent="1" source="fPY2Tthy9RuAqfQ_gG5_-13" target="fPY2Tthy9RuAqfQ_gG5_-21" edge="1">
          <mxGeometry relative="1" as="geometry">
            <Array as="points">
              <mxPoint x="1060" y="180" />
              <mxPoint x="1060" y="255" />
            </Array>
          </mxGeometry>
        </mxCell>
        <mxCell id="fPY2Tthy9RuAqfQ_gG5_-13" value="dane popartycjonowane i w jednotym formacie oddającym źródło" style="rounded=0;whiteSpace=wrap;html=1;fillColor=#d5e8d4;strokeColor=#82b366;" parent="1" vertex="1">
          <mxGeometry x="880" y="150" width="120" height="60" as="geometry" />
        </mxCell>
        <mxCell id="fPY2Tthy9RuAqfQ_gG5_-15" value="&lt;span class=&quot;hljs-punctuation&quot;&gt;{&lt;/span&gt;&lt;br&gt;&lt;span class=&quot;hljs-attr&quot;&gt;&quot;GridID&quot;&lt;/span&gt;&lt;span class=&quot;hljs-punctuation&quot;&gt;:&lt;/span&gt; &lt;span class=&quot;hljs-number&quot;&gt;1&lt;/span&gt;&lt;span class=&quot;hljs-punctuation&quot;&gt;,&lt;/span&gt;&lt;br&gt;&lt;span class=&quot;hljs-attr&quot;&gt;&quot;TimeInterval&quot;&lt;/span&gt;&lt;span class=&quot;hljs-punctuation&quot;&gt;:&lt;/span&gt; &lt;span class=&quot;hljs-number&quot;&gt;1383260400000&lt;/span&gt;&lt;span class=&quot;hljs-punctuation&quot;&gt;,&lt;/span&gt;&lt;span class=&quot;hljs-attr&quot;&gt;&lt;br&gt;&quot;countrycode&quot;&lt;/span&gt;&lt;span class=&quot;hljs-punctuation&quot;&gt;:&lt;/span&gt; &lt;span class=&quot;hljs-number&quot;&gt;39&lt;/span&gt;&lt;span class=&quot;hljs-punctuation&quot;&gt;,&lt;/span&gt;&lt;span class=&quot;hljs-attr&quot;&gt;&lt;br&gt;&quot;smsin&quot;&lt;/span&gt;&lt;span class=&quot;hljs-punctuation&quot;&gt;:&lt;/span&gt; &lt;span class=&quot;hljs-number&quot;&gt;0.1418642547024292&lt;/span&gt;&lt;span class=&quot;hljs-punctuation&quot;&gt;,&lt;/span&gt;&lt;br&gt;        &lt;span class=&quot;hljs-attr&quot;&gt;&quot;smsout&quot;&lt;/span&gt;&lt;span class=&quot;hljs-punctuation&quot;&gt;:&lt;/span&gt; &lt;span class=&quot;hljs-number&quot;&gt;0.1567870050390246&lt;/span&gt;&lt;span class=&quot;hljs-punctuation&quot;&gt;,&lt;/span&gt;&lt;br&gt;        &lt;span class=&quot;hljs-attr&quot;&gt;&quot;callin&quot;&lt;/span&gt;&lt;span class=&quot;hljs-punctuation&quot;&gt;:&lt;/span&gt; &lt;span class=&quot;hljs-number&quot;&gt;0.1609379369170182&lt;/span&gt;&lt;span class=&quot;hljs-punctuation&quot;&gt;,&lt;/span&gt;&lt;br&gt;        &lt;span class=&quot;hljs-attr&quot;&gt;&quot;callout&quot;&lt;/span&gt;&lt;span class=&quot;hljs-punctuation&quot;&gt;:&lt;/span&gt; &lt;span class=&quot;hljs-number&quot;&gt;0.0522748485285732&lt;/span&gt;&lt;span class=&quot;hljs-punctuation&quot;&gt;,&lt;/span&gt;&lt;br&gt;        &lt;span class=&quot;hljs-attr&quot;&gt;&quot;internet&quot;&lt;/span&gt;&lt;span class=&quot;hljs-punctuation&quot;&gt;:&lt;/span&gt; &lt;span class=&quot;hljs-number&quot;&gt;11.028366381681026&lt;/span&gt;&lt;br&gt;    &lt;span class=&quot;hljs-punctuation&quot;&gt;}&lt;/span&gt;" style="shape=note;whiteSpace=wrap;html=1;backgroundOutline=1;darkOpacity=0.05;" parent="1" vertex="1">
          <mxGeometry x="840" y="-40" width="200" height="180" as="geometry" />
        </mxCell>
        <mxCell id="fPY2Tthy9RuAqfQ_gG5_-20" style="edgeStyle=orthogonalEdgeStyle;rounded=0;orthogonalLoop=1;jettySize=auto;html=1;" parent="1" source="fPY2Tthy9RuAqfQ_gG5_-16" target="fPY2Tthy9RuAqfQ_gG5_-19" edge="1">
          <mxGeometry relative="1" as="geometry" />
        </mxCell>
        <mxCell id="fPY2Tthy9RuAqfQ_gG5_-16" value="normalizacja do tabeli 1" style="rounded=1;whiteSpace=wrap;html=1;fillColor=#fff2cc;strokeColor=#d6b656;" parent="1" vertex="1">
          <mxGeometry x="1110" y="100" width="170" height="60" as="geometry" />
        </mxCell>
        <mxCell id="fPY2Tthy9RuAqfQ_gG5_-18" value="załadowanie do warstwy srebrnej" style="text;html=1;align=center;verticalAlign=middle;whiteSpace=wrap;rounded=0;" parent="1" vertex="1">
          <mxGeometry x="1150" y="20" width="300" height="30" as="geometry" />
        </mxCell>
        <mxCell id="fPY2Tthy9RuAqfQ_gG5_-33" style="edgeStyle=orthogonalEdgeStyle;rounded=0;orthogonalLoop=1;jettySize=auto;html=1;" parent="1" source="fPY2Tthy9RuAqfQ_gG5_-19" target="fPY2Tthy9RuAqfQ_gG5_-32" edge="1">
          <mxGeometry relative="1" as="geometry" />
        </mxCell>
        <mxCell id="fPY2Tthy9RuAqfQ_gG5_-19" value="Internet usage" style="rounded=0;whiteSpace=wrap;html=1;fillColor=#d5e8d4;strokeColor=#82b366;" parent="1" vertex="1">
          <mxGeometry x="1360" y="85" width="140" height="90" as="geometry" />
        </mxCell>
        <mxCell id="fPY2Tthy9RuAqfQ_gG5_-21" value="normalizacja do tabeli 2" style="rounded=1;whiteSpace=wrap;html=1;fillColor=#fff2cc;strokeColor=#d6b656;" parent="1" vertex="1">
          <mxGeometry x="1110" y="225" width="170" height="60" as="geometry" />
        </mxCell>
        <mxCell id="fPY2Tthy9RuAqfQ_gG5_-36" style="edgeStyle=orthogonalEdgeStyle;rounded=0;orthogonalLoop=1;jettySize=auto;html=1;" parent="1" source="fPY2Tthy9RuAqfQ_gG5_-22" target="fPY2Tthy9RuAqfQ_gG5_-35" edge="1">
          <mxGeometry relative="1" as="geometry" />
        </mxCell>
        <mxCell id="fPY2Tthy9RuAqfQ_gG5_-22" value="Mobile usage" style="rounded=0;whiteSpace=wrap;html=1;fillColor=#d5e8d4;strokeColor=#82b366;" parent="1" vertex="1">
          <mxGeometry x="1360" y="210" width="140" height="90" as="geometry" />
        </mxCell>
        <mxCell id="fPY2Tthy9RuAqfQ_gG5_-23" style="edgeStyle=orthogonalEdgeStyle;rounded=0;orthogonalLoop=1;jettySize=auto;html=1;" parent="1" source="fPY2Tthy9RuAqfQ_gG5_-21" target="fPY2Tthy9RuAqfQ_gG5_-22" edge="1">
          <mxGeometry relative="1" as="geometry" />
        </mxCell>
        <mxCell id="fPY2Tthy9RuAqfQ_gG5_-25" value="normalizacja i enrichment" style="rounded=1;whiteSpace=wrap;html=1;fillColor=#fff2cc;strokeColor=#d6b656;" parent="1" vertex="1">
          <mxGeometry x="1120" y="480" width="170" height="60" as="geometry" />
        </mxCell>
        <mxCell id="fPY2Tthy9RuAqfQ_gG5_-37" style="edgeStyle=orthogonalEdgeStyle;rounded=0;orthogonalLoop=1;jettySize=auto;html=1;" parent="1" source="fPY2Tthy9RuAqfQ_gG5_-26" target="fPY2Tthy9RuAqfQ_gG5_-35" edge="1">
          <mxGeometry relative="1" as="geometry" />
        </mxCell>
        <mxCell id="fPY2Tthy9RuAqfQ_gG5_-26" value="Tourist" style="rounded=0;whiteSpace=wrap;html=1;fillColor=#d5e8d4;strokeColor=#82b366;" parent="1" vertex="1">
          <mxGeometry x="1360" y="465" width="140" height="90" as="geometry" />
        </mxCell>
        <mxCell id="fPY2Tthy9RuAqfQ_gG5_-27" style="edgeStyle=orthogonalEdgeStyle;rounded=0;orthogonalLoop=1;jettySize=auto;html=1;" parent="1" source="fPY2Tthy9RuAqfQ_gG5_-25" target="fPY2Tthy9RuAqfQ_gG5_-26" edge="1">
          <mxGeometry relative="1" as="geometry" />
        </mxCell>
        <mxCell id="fPY2Tthy9RuAqfQ_gG5_-28" value="dane osób (imie, nazwisko)" style="rounded=0;whiteSpace=wrap;html=1;fillColor=#d5e8d4;strokeColor=#82b366;" parent="1" vertex="1">
          <mxGeometry x="870" y="510" width="140" height="90" as="geometry" />
        </mxCell>
        <mxCell id="fPY2Tthy9RuAqfQ_gG5_-31" value="dane 1 gotowe do prezentacji" style="rounded=0;whiteSpace=wrap;html=1;fillColor=#d5e8d4;strokeColor=#82b366;" parent="1" vertex="1">
          <mxGeometry x="1910" y="97.5" width="140" height="65" as="geometry" />
        </mxCell>
        <mxCell id="fPY2Tthy9RuAqfQ_gG5_-34" style="edgeStyle=orthogonalEdgeStyle;rounded=0;orthogonalLoop=1;jettySize=auto;html=1;" parent="1" source="fPY2Tthy9RuAqfQ_gG5_-32" target="fPY2Tthy9RuAqfQ_gG5_-31" edge="1">
          <mxGeometry relative="1" as="geometry">
            <Array as="points">
              <mxPoint x="1870" y="130" />
              <mxPoint x="1870" y="130" />
            </Array>
          </mxGeometry>
        </mxCell>
        <mxCell id="fPY2Tthy9RuAqfQ_gG5_-32" value="Obliczenie zużycia internetu na turystę" style="rounded=1;whiteSpace=wrap;html=1;fillColor=#fff2cc;strokeColor=#d6b656;" parent="1" vertex="1">
          <mxGeometry x="1650" y="100" width="170" height="60" as="geometry" />
        </mxCell>
        <mxCell id="fPY2Tthy9RuAqfQ_gG5_-39" style="edgeStyle=orthogonalEdgeStyle;rounded=0;orthogonalLoop=1;jettySize=auto;html=1;" parent="1" source="fPY2Tthy9RuAqfQ_gG5_-35" target="fPY2Tthy9RuAqfQ_gG5_-38" edge="1">
          <mxGeometry relative="1" as="geometry" />
        </mxCell>
        <mxCell id="fPY2Tthy9RuAqfQ_gG5_-35" value="Obliczenie aktywności telefoniczna i smsowa na turystę" style="rounded=1;whiteSpace=wrap;html=1;fillColor=#fff2cc;strokeColor=#d6b656;" parent="1" vertex="1">
          <mxGeometry x="1650" y="290" width="170" height="60" as="geometry" />
        </mxCell>
        <mxCell id="fPY2Tthy9RuAqfQ_gG5_-38" value="dane 2 gotowe do prezentacji" style="rounded=0;whiteSpace=wrap;html=1;fillColor=#d5e8d4;strokeColor=#82b366;" parent="1" vertex="1">
          <mxGeometry x="1928" y="287.5" width="140" height="65" as="geometry" />
        </mxCell>
        <mxCell id="fPY2Tthy9RuAqfQ_gG5_-40" value="załadowanie do warstwy złotej" style="text;html=1;align=center;verticalAlign=middle;whiteSpace=wrap;rounded=0;" parent="1" vertex="1">
          <mxGeometry x="1670" y="30" width="300" height="30" as="geometry" />
        </mxCell>
        <mxCell id="fPY2Tthy9RuAqfQ_gG5_-43" style="edgeStyle=orthogonalEdgeStyle;rounded=0;orthogonalLoop=1;jettySize=auto;html=1;" parent="1" edge="1">
          <mxGeometry relative="1" as="geometry">
            <mxPoint x="470" y="810" as="targetPoint" />
          </mxGeometry>
        </mxCell>
        <mxCell id="fPY2Tthy9RuAqfQ_gG5_-80" value="schema:&amp;nbsp;&lt;br&gt;GridID: Integer&lt;div&gt;TimeInterval: Timestamp&lt;/div&gt;&lt;div&gt;InternetCDR: Float&lt;/div&gt;&lt;div&gt;InternetTransfer: Float&lt;/div&gt;" style="shape=note;whiteSpace=wrap;html=1;backgroundOutline=1;darkOpacity=0.05;" parent="1" vertex="1">
          <mxGeometry x="1480" width="140" height="100" as="geometry" />
        </mxCell>
        <mxCell id="T8NU-TL7ekUcq-iIJy7e-2" value="bronze/milan_mobile/&amp;nbsp;&lt;br&gt;milan_mobile_part0.csv&lt;div&gt;milan_mobile_part1.csv&lt;br&gt;&lt;/div&gt;" style="shape=note;whiteSpace=wrap;html=1;backgroundOutline=1;darkOpacity=0.05;" parent="1" vertex="1">
          <mxGeometry x="840" y="220" width="200" height="90" as="geometry" />
        </mxCell>
        <mxCell id="BO2p9xkJt_e9tAxmMOo1-1" value="&lt;font style=&quot;font-size: 24px;&quot;&gt;&lt;font style=&quot;&quot;&gt;Kamil &lt;/font&gt;&lt;font style=&quot;&quot;&gt;Dereń&lt;/font&gt;&lt;/font&gt;&lt;div&gt;&lt;font style=&quot;font-size: 24px;&quot;&gt;Dominik Dziuba&lt;/font&gt;&lt;/div&gt;&lt;div&gt;&lt;font style=&quot;font-size: 24px;&quot;&gt;Damian Kluczyński&lt;/font&gt;&lt;/div&gt;&lt;div&gt;&lt;font style=&quot;font-size: 18px;&quot;&gt;Gr. D DS01&lt;/font&gt;&lt;/div&gt;" style="text;html=1;align=center;verticalAlign=middle;resizable=0;points=[];autosize=1;strokeColor=none;fillColor=none;" parent="1" vertex="1">
          <mxGeometry x="280" y="-120" width="230" height="120" as="geometry" />
        </mxCell>
        <mxCell id="3JT-cXEsQMtprei1t-U--1" value="&lt;font style=&quot;font-size: 18px;&quot;&gt;Zbiór danych dostarcza informacji o aktywności telekomunikacyjnej w mieście Mediolan.&amp;nbsp;&lt;/font&gt;&lt;div&gt;&lt;font style=&quot;font-size: 18px;&quot;&gt;Zbiór danych jest wynikiem obliczeń zapisów szczegółów połączeń (CDR) generowanych przez sieć komórkową Telecom Italia w mieście Mediolan.&amp;nbsp;&lt;/font&gt;&lt;div&gt;&lt;font style=&quot;font-size: 18px;&quot;&gt;Rejestry CDR rejestrują aktywność użytkowników do celów rozliczeniowych i zarządzania siecią.&lt;/font&gt;&lt;/div&gt;&lt;/div&gt;" style="text;html=1;align=center;verticalAlign=middle;resizable=0;points=[];autosize=1;strokeColor=none;fillColor=none;" parent="1" vertex="1">
          <mxGeometry x="641" y="-120" width="1200" height="80" as="geometry" />
        </mxCell>
        <mxCell id="3JT-cXEsQMtprei1t-U--3" value="&lt;div&gt;&lt;br&gt;&lt;/div&gt;&lt;div&gt;&lt;table style=&quot;text-wrap: nowrap;&quot; border=&quot;0&quot; cellspacing=&quot;0&quot;&gt;&lt;colgroup width=&quot;50&quot;&gt;&lt;/colgroup&gt;&lt;colgroup width=&quot;105&quot;&gt;&lt;/colgroup&gt;&lt;colgroup width=&quot;85&quot;&gt;&lt;/colgroup&gt;&lt;colgroup width=&quot;164&quot; span=&quot;5&quot;&gt;&lt;/colgroup&gt;&lt;tbody&gt;&lt;tr&gt;&lt;td align=&quot;left&quot; height=&quot;17&quot;&gt;GridID|&lt;/td&gt;&lt;td align=&quot;left&quot;&gt;&amp;nbsp; &amp;nbsp; &amp;nbsp;TimeInterval|&lt;/td&gt;&lt;td align=&quot;left&quot;&gt;countrycode&lt;/td&gt;&lt;td align=&quot;left&quot;&gt;|smsin&lt;/td&gt;&lt;td align=&quot;left&quot;&gt;|smsout&lt;/td&gt;&lt;td align=&quot;left&quot;&gt;|callin&lt;/td&gt;&lt;td align=&quot;left&quot;&gt;|callout&lt;/td&gt;&lt;td align=&quot;left&quot;&gt;|internet&lt;/td&gt;&lt;/tr&gt;&lt;tr&gt;&lt;td align=&quot;right&quot; height=&quot;17&quot;&gt;1|&lt;/td&gt;&lt;td align=&quot;right&quot;&gt;1383260400000|&lt;/td&gt;&lt;td align=&quot;right&quot;&gt;0&lt;/td&gt;&lt;td align=&quot;left&quot;&gt;|0.0813626235112588&lt;/td&gt;&lt;td align=&quot;left&quot;&gt;|&lt;/td&gt;&lt;td align=&quot;left&quot;&gt;|&lt;/td&gt;&lt;td align=&quot;left&quot;&gt;|&lt;/td&gt;&lt;td align=&quot;left&quot;&gt;|&lt;/td&gt;&lt;/tr&gt;&lt;tr&gt;&lt;td align=&quot;right&quot; height=&quot;17&quot;&gt;1|&lt;/td&gt;&lt;td align=&quot;right&quot;&gt;1383260400000|&lt;/td&gt;&lt;td align=&quot;right&quot;&gt;39&lt;/td&gt;&lt;td align=&quot;left&quot;&gt;|0.1418642547024292&lt;/td&gt;&lt;td align=&quot;left&quot;&gt;|0.1567870050390246&lt;/td&gt;&lt;td align=&quot;left&quot;&gt;|0.1609379369170182&lt;/td&gt;&lt;td align=&quot;left&quot;&gt;|0.0522748485285732&lt;/td&gt;&lt;td align=&quot;left&quot;&gt;|11.028366381681026&lt;/td&gt;&lt;/tr&gt;&lt;tr&gt;&lt;td align=&quot;right&quot; height=&quot;17&quot;&gt;1|&lt;/td&gt;&lt;td align=&quot;right&quot;&gt;1383261000000|&lt;/td&gt;&lt;td align=&quot;right&quot;&gt;0&lt;/td&gt;&lt;td align=&quot;left&quot;&gt;|0.136587822758231&lt;/td&gt;&lt;td align=&quot;left&quot;&gt;|&lt;/td&gt;&lt;td align=&quot;left&quot;&gt;|&lt;/td&gt;&lt;td align=&quot;left&quot;&gt;|0.0273004648771861&lt;/td&gt;&lt;td align=&quot;left&quot;&gt;|&lt;/td&gt;&lt;/tr&gt;&lt;tr&gt;&lt;td align=&quot;right&quot; height=&quot;17&quot;&gt;1|&lt;/td&gt;&lt;td align=&quot;right&quot;&gt;1383261000000|&lt;/td&gt;&lt;td align=&quot;right&quot;&gt;33&lt;/td&gt;&lt;td align=&quot;left&quot;&gt;|&lt;/td&gt;&lt;td align=&quot;left&quot;&gt;|&lt;/td&gt;&lt;td align=&quot;left&quot;&gt;|&lt;/td&gt;&lt;td align=&quot;left&quot;&gt;|&lt;/td&gt;&lt;td align=&quot;left&quot;&gt;|0.0261374242642866&lt;/td&gt;&lt;/tr&gt;&lt;tr&gt;&lt;td align=&quot;right&quot; height=&quot;17&quot;&gt;1|&lt;/td&gt;&lt;td align=&quot;right&quot;&gt;1383261000000|&lt;/td&gt;&lt;td align=&quot;right&quot;&gt;39&lt;/td&gt;&lt;td align=&quot;left&quot;&gt;|0.2784520774606602&lt;/td&gt;&lt;td align=&quot;left&quot;&gt;|0.1199257201417413&lt;/td&gt;&lt;td align=&quot;left&quot;&gt;|0.1887771729145041&lt;/td&gt;&lt;td align=&quot;left&quot;&gt;|0.133637472039832&lt;/td&gt;&lt;td align=&quot;left&quot;&gt;|11.100963451409388&lt;/td&gt;&lt;/tr&gt;&lt;tr&gt;&lt;td align=&quot;right&quot; height=&quot;17&quot;&gt;1|&lt;/td&gt;&lt;td align=&quot;right&quot;&gt;1383261600000|&lt;/td&gt;&lt;td align=&quot;right&quot;&gt;0&lt;/td&gt;&lt;td align=&quot;left&quot;&gt;|0.0534378891414727&lt;/td&gt;&lt;td align=&quot;left&quot;&gt;|&lt;/td&gt;&lt;td align=&quot;left&quot;&gt;|&lt;/td&gt;&lt;td align=&quot;left&quot;&gt;|&lt;/td&gt;&lt;td align=&quot;left&quot;&gt;|&lt;/td&gt;&lt;/tr&gt;&lt;tr&gt;&lt;td align=&quot;right&quot; height=&quot;17&quot;&gt;1|&lt;/td&gt;&lt;td align=&quot;right&quot;&gt;1383261600000|&lt;/td&gt;&lt;td align=&quot;right&quot;&gt;39&lt;/td&gt;&lt;td align=&quot;left&quot;&gt;|0.3306414276169333&lt;/td&gt;&lt;td align=&quot;left&quot;&gt;|0.1709520296851148&lt;/td&gt;&lt;td align=&quot;left&quot;&gt;|0.1341762431601317&lt;/td&gt;&lt;td align=&quot;left&quot;&gt;|0.0546009297543723&lt;/td&gt;&lt;td align=&quot;left&quot;&gt;|10.892770602791096&lt;/td&gt;&lt;/tr&gt;&lt;tr&gt;&lt;td align=&quot;right&quot; height=&quot;17&quot;&gt;1|&lt;/td&gt;&lt;td align=&quot;right&quot;&gt;1383262200000|&lt;/td&gt;&lt;td align=&quot;right&quot;&gt;0&lt;/td&gt;&lt;td align=&quot;left&quot;&gt;|0.0261374242642866&lt;/td&gt;&lt;td align=&quot;left&quot;&gt;|&lt;/td&gt;&lt;td align=&quot;left&quot;&gt;|&lt;/td&gt;&lt;td align=&quot;left&quot;&gt;|&lt;/td&gt;&lt;td align=&quot;left&quot;&gt;|&lt;/td&gt;&lt;/tr&gt;&lt;tr&gt;&lt;td align=&quot;right&quot; height=&quot;17&quot;&gt;1|&lt;/td&gt;&lt;td align=&quot;right&quot;&gt;1383262200000|&lt;/td&gt;&lt;td align=&quot;right&quot;&gt;39&lt;/td&gt;&lt;td align=&quot;left&quot;&gt;|0.6814340796890551&lt;/td&gt;&lt;td align=&quot;left&quot;&gt;|0.2208152986155887&lt;/td&gt;&lt;td align=&quot;left&quot;&gt;|0.0273004648771861&lt;/td&gt;&lt;td align=&quot;left&quot;&gt;|0.0534378891414727&lt;/td&gt;&lt;td align=&quot;left&quot;&gt;|8.622424590989748&lt;/td&gt;&lt;/tr&gt;&lt;/tbody&gt;&lt;/table&gt;&lt;/div&gt;" style="shape=note;whiteSpace=wrap;html=1;backgroundOutline=1;darkOpacity=0.05;" parent="1" vertex="1">
          <mxGeometry x="-200" y="250" width="900" height="240" as="geometry" />
        </mxCell>
        <mxCell id="3JT-cXEsQMtprei1t-U--4" value="&lt;div&gt;Każdy rekord to inny użytkownik&lt;/div&gt;&lt;div&gt;&lt;br&gt;&lt;/div&gt;Faker:&lt;br&gt;Dodanie imienia i nazwiska dla użytkownika&lt;div&gt;&lt;br&gt;&lt;/div&gt;&lt;div&gt;Użycie countrycode do ustalenia kraju pochodzenia użytkownika&lt;/div&gt;" style="shape=note;whiteSpace=wrap;html=1;backgroundOutline=1;darkOpacity=0.05;" parent="1" vertex="1">
          <mxGeometry x="520" y="590" width="200" height="130" as="geometry" />
        </mxCell>
        <mxCell id="UBAmns6SdKheWYtsYeD3-1" value="schema:&amp;nbsp;&lt;br&gt;GridID: Integer&lt;div&gt;TimeInterval: Timestamp&lt;/div&gt;&lt;div&gt;Name: Varchar&lt;/div&gt;&lt;div&gt;Surname: Varchar&lt;/div&gt;&lt;div&gt;Country: Varchar&lt;/div&gt;&lt;div&gt;CountryCode: Integer&lt;/div&gt;&lt;div&gt;&lt;div&gt;SmsinCDR: Float&lt;br&gt;&lt;/div&gt;&lt;div&gt;SmsoutCDR: Float&lt;br&gt;&lt;/div&gt;&lt;div&gt;CallinCDR: Float&lt;/div&gt;&lt;div&gt;&lt;span style=&quot;background-color: initial;&quot;&gt;CalloutCDR: Float&lt;/span&gt;&lt;/div&gt;&lt;/div&gt;" style="shape=note;whiteSpace=wrap;html=1;backgroundOutline=1;darkOpacity=0.05;" parent="1" vertex="1">
          <mxGeometry x="2003" y="350" width="130" height="190" as="geometry" />
        </mxCell>
        <mxCell id="UBAmns6SdKheWYtsYeD3-2" value="schema:&amp;nbsp;&lt;br&gt;&lt;div&gt;TimeInterval: Timestamp&lt;/div&gt;&lt;div&gt;SmsinCDR: Float&lt;br&gt;&lt;/div&gt;&lt;div&gt;SmsoutCDR: Float&lt;br&gt;&lt;/div&gt;&lt;div&gt;CallinCDR: Float&lt;/div&gt;&lt;div&gt;&lt;span style=&quot;background-color: initial;&quot;&gt;CalloutCDR: Float&lt;/span&gt;&lt;/div&gt;" style="shape=note;whiteSpace=wrap;html=1;backgroundOutline=1;darkOpacity=0.05;" parent="1" vertex="1">
          <mxGeometry x="1310" y="285" width="140" height="100" as="geometry" />
        </mxCell>
        <mxCell id="cyaOHyr9ARaaXlVXIIjq-1" value="Czy w każdej partycji ma być header?" style="shape=note;whiteSpace=wrap;html=1;backgroundOutline=1;darkOpacity=0.05;" parent="1" vertex="1">
          <mxGeometry x="840" y="310" width="213" height="80" as="geometry" />
        </mxCell>
        <mxCell id="cyaOHyr9ARaaXlVXIIjq-2" value="Arytkuł o Milan mobile (dołączyć w pdf i wysłac)" style="shape=note;whiteSpace=wrap;html=1;backgroundOutline=1;darkOpacity=0.05;" parent="1" vertex="1">
          <mxGeometry x="880" y="620" width="200" height="90" as="geometry" />
        </mxCell>
        <mxCell id="cyaOHyr9ARaaXlVXIIjq-6" value="generowanie sztucznych danych" style="rounded=1;whiteSpace=wrap;html=1;fillColor=#fff2cc;strokeColor=#d6b656;" parent="1" vertex="1">
          <mxGeometry x="570" y="525" width="120" height="60" as="geometry" />
        </mxCell>
        <mxCell id="cyaOHyr9ARaaXlVXIIjq-7" style="edgeStyle=orthogonalEdgeStyle;rounded=0;orthogonalLoop=1;jettySize=auto;html=1;entryX=0;entryY=0.5;entryDx=0;entryDy=0;exitX=1;exitY=0.5;exitDx=0;exitDy=0;" parent="1" source="cyaOHyr9ARaaXlVXIIjq-6" target="fPY2Tthy9RuAqfQ_gG5_-28" edge="1">
          <mxGeometry relative="1" as="geometry">
            <mxPoint x="690" y="550" as="sourcePoint" />
            <mxPoint x="790" y="550" as="targetPoint" />
          </mxGeometry>
        </mxCell>
        <mxCell id="cyaOHyr9ARaaXlVXIIjq-8" style="edgeStyle=orthogonalEdgeStyle;rounded=0;orthogonalLoop=1;jettySize=auto;html=1;exitX=1.007;exitY=0.6;exitDx=0;exitDy=0;exitPerimeter=0;entryX=0;entryY=0.5;entryDx=0;entryDy=0;" parent="1" source="fPY2Tthy9RuAqfQ_gG5_-28" target="fPY2Tthy9RuAqfQ_gG5_-25" edge="1">
          <mxGeometry relative="1" as="geometry">
            <mxPoint x="953" y="555" as="sourcePoint" />
            <mxPoint x="1053" y="555" as="targetPoint" />
            <Array as="points">
              <mxPoint x="1050" y="564" />
              <mxPoint x="1050" y="510" />
            </Array>
          </mxGeometry>
        </mxCell>
        <mxCell id="cyaOHyr9ARaaXlVXIIjq-9" style="rounded=0;orthogonalLoop=1;jettySize=auto;html=1;entryX=1;entryY=0;entryDx=0;entryDy=0;exitX=1;exitY=0.5;exitDx=0;exitDy=0;" parent="1" source="fPY2Tthy9RuAqfQ_gG5_-13" target="cyaOHyr9ARaaXlVXIIjq-6" edge="1">
          <mxGeometry relative="1" as="geometry">
            <mxPoint x="700" y="565" as="sourcePoint" />
            <mxPoint x="840" y="545" as="targetPoint" />
          </mxGeometry>
        </mxCell>
        <mxCell id="cyaOHyr9ARaaXlVXIIjq-10" value="ID z datasetu do wygenerowania matchujacych danych" style="shape=note;whiteSpace=wrap;html=1;backgroundOutline=1;darkOpacity=0.05;" parent="1" vertex="1">
          <mxGeometry x="720" y="400" width="130" height="80" as="geometry" />
        </mxCell>
        <mxCell id="cyaOHyr9ARaaXlVXIIjq-12" style="rounded=0;orthogonalLoop=1;jettySize=auto;html=1;exitX=1;exitY=0;exitDx=0;exitDy=0;entryX=0;entryY=1;entryDx=0;entryDy=0;" parent="1" source="fPY2Tthy9RuAqfQ_gG5_-26" target="fPY2Tthy9RuAqfQ_gG5_-32" edge="1">
          <mxGeometry relative="1" as="geometry">
            <mxPoint x="1510" y="405" as="sourcePoint" />
            <mxPoint x="1660" y="330" as="targetPoint" />
          </mxGeometry>
        </mxCell>
        <mxCell id="cyaOHyr9ARaaXlVXIIjq-13" value="Sprawdzenie powiązania zużycia vs mobile" style="rounded=1;whiteSpace=wrap;html=1;fillColor=#fff2cc;strokeColor=#d6b656;" parent="1" vertex="1">
          <mxGeometry x="2090" y="200" width="170" height="60" as="geometry" />
        </mxCell>
        <mxCell id="cyaOHyr9ARaaXlVXIIjq-14" style="edgeStyle=orthogonalEdgeStyle;rounded=0;orthogonalLoop=1;jettySize=auto;html=1;exitX=1;exitY=0.5;exitDx=0;exitDy=0;entryX=0;entryY=0;entryDx=0;entryDy=0;" parent="1" source="fPY2Tthy9RuAqfQ_gG5_-31" target="cyaOHyr9ARaaXlVXIIjq-13" edge="1">
          <mxGeometry relative="1" as="geometry">
            <mxPoint x="1830" y="140" as="sourcePoint" />
            <mxPoint x="1920" y="140" as="targetPoint" />
            <Array as="points">
              <mxPoint x="2050" y="140" />
              <mxPoint x="2090" y="140" />
            </Array>
          </mxGeometry>
        </mxCell>
        <mxCell id="cyaOHyr9ARaaXlVXIIjq-15" style="edgeStyle=orthogonalEdgeStyle;rounded=0;orthogonalLoop=1;jettySize=auto;html=1;exitX=1;exitY=0;exitDx=0;exitDy=0;entryX=0;entryY=0.75;entryDx=0;entryDy=0;" parent="1" source="fPY2Tthy9RuAqfQ_gG5_-38" target="cyaOHyr9ARaaXlVXIIjq-13" edge="1">
          <mxGeometry relative="1" as="geometry">
            <mxPoint x="1840" y="150" as="sourcePoint" />
            <mxPoint x="1930" y="150" as="targetPoint" />
            <Array as="points">
              <mxPoint x="2090" y="288" />
            </Array>
          </mxGeometry>
        </mxCell>
        <mxCell id="cyaOHyr9ARaaXlVXIIjq-16" value="Czy zużycie internetu ma powiązanie z aktywnością teleinformatyczną" style="shape=note;whiteSpace=wrap;html=1;backgroundOutline=1;darkOpacity=0.05;" parent="1" vertex="1">
          <mxGeometry x="2180" y="262.5" width="160" height="90" as="geometry" />
        </mxCell>
        <mxCell id="cyaOHyr9ARaaXlVXIIjq-17" value="dane 2 gotowe do prezentacji" style="rounded=0;whiteSpace=wrap;html=1;fillColor=#d5e8d4;strokeColor=#82b366;" parent="1" vertex="1">
          <mxGeometry x="2320" y="197.5" width="140" height="65" as="geometry" />
        </mxCell>
        <mxCell id="cyaOHyr9ARaaXlVXIIjq-18" style="edgeStyle=orthogonalEdgeStyle;rounded=0;orthogonalLoop=1;jettySize=auto;html=1;exitX=1;exitY=0.5;exitDx=0;exitDy=0;entryX=0;entryY=0.5;entryDx=0;entryDy=0;" parent="1" source="cyaOHyr9ARaaXlVXIIjq-13" target="cyaOHyr9ARaaXlVXIIjq-17" edge="1">
          <mxGeometry relative="1" as="geometry">
            <mxPoint x="2078" y="298" as="sourcePoint" />
            <mxPoint x="2100" y="255" as="targetPoint" />
            <Array as="points">
              <mxPoint x="2290" y="230" />
              <mxPoint x="2290" y="230" />
            </Array>
          </mxGeometry>
        </mxCell>
        <mxCell id="cyaOHyr9ARaaXlVXIIjq-19" value="schema:&amp;nbsp;&lt;br&gt;GridID: Integer&lt;div&gt;TimeInterval: Timestamp&lt;/div&gt;&lt;div&gt;Name: Varchar&lt;/div&gt;&lt;div&gt;Surname: Varchar&lt;/div&gt;&lt;div&gt;Country: Varchar&lt;/div&gt;&lt;div&gt;CountryCode: Integer&lt;/div&gt;&lt;div&gt;InternetCDR: Float&lt;/div&gt;&lt;div&gt;InternetTransfer: Float&lt;/div&gt;" style="shape=note;whiteSpace=wrap;html=1;backgroundOutline=1;darkOpacity=0.05;" parent="1" vertex="1">
          <mxGeometry x="2050" y="-30" width="142" height="150" as="geometry" />
        </mxCell>
        <mxCell id="zeJusp_OE90owRkpHKMH-2" style="edgeStyle=orthogonalEdgeStyle;rounded=0;orthogonalLoop=1;jettySize=auto;html=1;" parent="1" source="zeJusp_OE90owRkpHKMH-3" target="zeJusp_OE90owRkpHKMH-5" edge="1">
          <mxGeometry relative="1" as="geometry" />
        </mxCell>
        <mxCell id="zeJusp_OE90owRkpHKMH-3" value="dane źródłowe" style="rounded=0;whiteSpace=wrap;html=1;fillColor=#d5e8d4;strokeColor=#82b366;" parent="1" vertex="1">
          <mxGeometry x="-413" y="1490" width="120" height="60" as="geometry" />
        </mxCell>
        <mxCell id="zeJusp_OE90owRkpHKMH-4" style="edgeStyle=orthogonalEdgeStyle;rounded=0;orthogonalLoop=1;jettySize=auto;html=1;" parent="1" source="zeJusp_OE90owRkpHKMH-5" target="zeJusp_OE90owRkpHKMH-7" edge="1">
          <mxGeometry relative="1" as="geometry" />
        </mxCell>
        <mxCell id="zeJusp_OE90owRkpHKMH-5" value="pobranie próbki" style="rounded=1;whiteSpace=wrap;html=1;fillColor=#fff2cc;strokeColor=#d6b656;" parent="1" vertex="1">
          <mxGeometry x="-153" y="1490" width="120" height="60" as="geometry" />
        </mxCell>
        <mxCell id="zeJusp_OE90owRkpHKMH-6" style="edgeStyle=orthogonalEdgeStyle;rounded=0;orthogonalLoop=1;jettySize=auto;html=1;" parent="1" source="zeJusp_OE90owRkpHKMH-7" target="zeJusp_OE90owRkpHKMH-9" edge="1">
          <mxGeometry relative="1" as="geometry" />
        </mxCell>
        <mxCell id="zeJusp_OE90owRkpHKMH-7" value="miarodajna próbka" style="rounded=0;whiteSpace=wrap;html=1;fillColor=#d5e8d4;strokeColor=#82b366;" parent="1" vertex="1">
          <mxGeometry x="37" y="1490" width="120" height="60" as="geometry" />
        </mxCell>
        <mxCell id="zeJusp_OE90owRkpHKMH-8" style="edgeStyle=orthogonalEdgeStyle;rounded=0;orthogonalLoop=1;jettySize=auto;html=1;" parent="1" source="zeJusp_OE90owRkpHKMH-9" target="zeJusp_OE90owRkpHKMH-12" edge="1">
          <mxGeometry relative="1" as="geometry" />
        </mxCell>
        <mxCell id="zeJusp_OE90owRkpHKMH-9" value="załadowanie do warstwy brązowej" style="rounded=1;whiteSpace=wrap;html=1;fillColor=#fff2cc;strokeColor=#d6b656;" parent="1" vertex="1">
          <mxGeometry x="227" y="1490" width="120" height="60" as="geometry" />
        </mxCell>
        <mxCell id="zeJusp_OE90owRkpHKMH-10" style="edgeStyle=orthogonalEdgeStyle;rounded=0;orthogonalLoop=1;jettySize=auto;html=1;" parent="1" source="zeJusp_OE90owRkpHKMH-12" target="zeJusp_OE90owRkpHKMH-15" edge="1">
          <mxGeometry relative="1" as="geometry">
            <Array as="points">
              <mxPoint x="990" y="1520" />
              <mxPoint x="990" y="1470" />
            </Array>
          </mxGeometry>
        </mxCell>
        <mxCell id="zeJusp_OE90owRkpHKMH-11" style="edgeStyle=orthogonalEdgeStyle;rounded=0;orthogonalLoop=1;jettySize=auto;html=1;entryX=0;entryY=0.5;entryDx=0;entryDy=0;" parent="1" source="zeJusp_OE90owRkpHKMH-12" target="zeJusp_OE90owRkpHKMH-19" edge="1">
          <mxGeometry relative="1" as="geometry">
            <Array as="points">
              <mxPoint x="990" y="1520" />
              <mxPoint x="990" y="1595" />
            </Array>
          </mxGeometry>
        </mxCell>
        <mxCell id="zeJusp_OE90owRkpHKMH-12" value="dane popartycjonowane i w jednotym formacie oddającym źródło" style="rounded=0;whiteSpace=wrap;html=1;fillColor=#d5e8d4;strokeColor=#82b366;" parent="1" vertex="1">
          <mxGeometry x="447" y="1490" width="120" height="60" as="geometry" />
        </mxCell>
        <mxCell id="zeJusp_OE90owRkpHKMH-14" style="edgeStyle=orthogonalEdgeStyle;rounded=0;orthogonalLoop=1;jettySize=auto;html=1;" parent="1" source="zeJusp_OE90owRkpHKMH-15" target="zeJusp_OE90owRkpHKMH-18" edge="1">
          <mxGeometry relative="1" as="geometry" />
        </mxCell>
        <mxCell id="zeJusp_OE90owRkpHKMH-15" value="normalizacja do tabeli 1" style="rounded=1;whiteSpace=wrap;html=1;fillColor=#fff2cc;strokeColor=#d6b656;" parent="1" vertex="1">
          <mxGeometry x="1040" y="1440" width="170" height="60" as="geometry" />
        </mxCell>
        <mxCell id="zeJusp_OE90owRkpHKMH-16" value="załadowanie do warstwy srebrnej" style="text;html=1;align=center;verticalAlign=middle;whiteSpace=wrap;rounded=0;" parent="1" vertex="1">
          <mxGeometry x="1080" y="1360" width="300" height="30" as="geometry" />
        </mxCell>
        <mxCell id="zeJusp_OE90owRkpHKMH-17" style="edgeStyle=orthogonalEdgeStyle;rounded=0;orthogonalLoop=1;jettySize=auto;html=1;" parent="1" source="zeJusp_OE90owRkpHKMH-18" target="zeJusp_OE90owRkpHKMH-30" edge="1">
          <mxGeometry relative="1" as="geometry" />
        </mxCell>
        <mxCell id="zeJusp_OE90owRkpHKMH-18" value="Internet usage" style="rounded=0;whiteSpace=wrap;html=1;fillColor=#d5e8d4;strokeColor=#82b366;" parent="1" vertex="1">
          <mxGeometry x="1290" y="1425" width="140" height="90" as="geometry" />
        </mxCell>
        <mxCell id="zeJusp_OE90owRkpHKMH-19" value="normalizacja do tabeli 2" style="rounded=1;whiteSpace=wrap;html=1;fillColor=#fff2cc;strokeColor=#d6b656;" parent="1" vertex="1">
          <mxGeometry x="1040" y="1565" width="170" height="60" as="geometry" />
        </mxCell>
        <mxCell id="zeJusp_OE90owRkpHKMH-20" style="edgeStyle=orthogonalEdgeStyle;rounded=0;orthogonalLoop=1;jettySize=auto;html=1;" parent="1" source="zeJusp_OE90owRkpHKMH-21" target="zeJusp_OE90owRkpHKMH-32" edge="1">
          <mxGeometry relative="1" as="geometry" />
        </mxCell>
        <mxCell id="zeJusp_OE90owRkpHKMH-21" value="Mobile usage" style="rounded=0;whiteSpace=wrap;html=1;fillColor=#d5e8d4;strokeColor=#82b366;" parent="1" vertex="1">
          <mxGeometry x="1290" y="1550" width="140" height="90" as="geometry" />
        </mxCell>
        <mxCell id="zeJusp_OE90owRkpHKMH-22" style="edgeStyle=orthogonalEdgeStyle;rounded=0;orthogonalLoop=1;jettySize=auto;html=1;" parent="1" source="zeJusp_OE90owRkpHKMH-19" target="zeJusp_OE90owRkpHKMH-21" edge="1">
          <mxGeometry relative="1" as="geometry" />
        </mxCell>
        <mxCell id="zeJusp_OE90owRkpHKMH-23" value="normalizacja i enrichment" style="rounded=1;whiteSpace=wrap;html=1;fillColor=#fff2cc;strokeColor=#d6b656;" parent="1" vertex="1">
          <mxGeometry x="1050" y="1820" width="170" height="60" as="geometry" />
        </mxCell>
        <mxCell id="zeJusp_OE90owRkpHKMH-24" style="edgeStyle=orthogonalEdgeStyle;rounded=0;orthogonalLoop=1;jettySize=auto;html=1;" parent="1" source="zeJusp_OE90owRkpHKMH-25" target="zeJusp_OE90owRkpHKMH-32" edge="1">
          <mxGeometry relative="1" as="geometry" />
        </mxCell>
        <mxCell id="zeJusp_OE90owRkpHKMH-25" value="Tourist" style="rounded=0;whiteSpace=wrap;html=1;fillColor=#d5e8d4;strokeColor=#82b366;" parent="1" vertex="1">
          <mxGeometry x="1290" y="1805" width="140" height="90" as="geometry" />
        </mxCell>
        <mxCell id="zeJusp_OE90owRkpHKMH-26" style="edgeStyle=orthogonalEdgeStyle;rounded=0;orthogonalLoop=1;jettySize=auto;html=1;" parent="1" source="zeJusp_OE90owRkpHKMH-23" target="zeJusp_OE90owRkpHKMH-25" edge="1">
          <mxGeometry relative="1" as="geometry" />
        </mxCell>
        <mxCell id="zeJusp_OE90owRkpHKMH-27" value="dane osób (imie, nazwisko)" style="rounded=0;whiteSpace=wrap;html=1;fillColor=#d5e8d4;strokeColor=#82b366;" parent="1" vertex="1">
          <mxGeometry x="800" y="1805" width="140" height="90" as="geometry" />
        </mxCell>
        <mxCell id="zeJusp_OE90owRkpHKMH-28" value="dane 1 gotowe do prezentacji" style="rounded=0;whiteSpace=wrap;html=1;fillColor=#d5e8d4;strokeColor=#82b366;" parent="1" vertex="1">
          <mxGeometry x="1840" y="1437.5" width="140" height="65" as="geometry" />
        </mxCell>
        <mxCell id="zeJusp_OE90owRkpHKMH-29" style="edgeStyle=orthogonalEdgeStyle;rounded=0;orthogonalLoop=1;jettySize=auto;html=1;" parent="1" source="zeJusp_OE90owRkpHKMH-30" target="zeJusp_OE90owRkpHKMH-28" edge="1">
          <mxGeometry relative="1" as="geometry">
            <Array as="points">
              <mxPoint x="1800" y="1470" />
              <mxPoint x="1800" y="1470" />
            </Array>
          </mxGeometry>
        </mxCell>
        <mxCell id="zeJusp_OE90owRkpHKMH-30" value="Obliczenie zużycia internetu na turystę" style="rounded=1;whiteSpace=wrap;html=1;fillColor=#fff2cc;strokeColor=#d6b656;" parent="1" vertex="1">
          <mxGeometry x="1580" y="1440" width="170" height="60" as="geometry" />
        </mxCell>
        <mxCell id="zeJusp_OE90owRkpHKMH-31" style="edgeStyle=orthogonalEdgeStyle;rounded=0;orthogonalLoop=1;jettySize=auto;html=1;" parent="1" source="zeJusp_OE90owRkpHKMH-32" target="zeJusp_OE90owRkpHKMH-33" edge="1">
          <mxGeometry relative="1" as="geometry" />
        </mxCell>
        <mxCell id="zeJusp_OE90owRkpHKMH-32" value="Obliczenie aktywności telefoniczna i smsowa na turystę" style="rounded=1;whiteSpace=wrap;html=1;fillColor=#fff2cc;strokeColor=#d6b656;" parent="1" vertex="1">
          <mxGeometry x="1580" y="1630" width="170" height="60" as="geometry" />
        </mxCell>
        <mxCell id="zeJusp_OE90owRkpHKMH-33" value="dane 2 gotowe do prezentacji" style="rounded=0;whiteSpace=wrap;html=1;fillColor=#d5e8d4;strokeColor=#82b366;" parent="1" vertex="1">
          <mxGeometry x="1858" y="1627.5" width="140" height="65" as="geometry" />
        </mxCell>
        <mxCell id="zeJusp_OE90owRkpHKMH-34" value="załadowanie do warstwy złotej" style="text;html=1;align=center;verticalAlign=middle;whiteSpace=wrap;rounded=0;" parent="1" vertex="1">
          <mxGeometry x="1600" y="1370" width="300" height="30" as="geometry" />
        </mxCell>
        <mxCell id="zeJusp_OE90owRkpHKMH-35" value="schema:&amp;nbsp;&lt;br&gt;GridID: Integer&lt;div&gt;TimeInterval: Timestamp&lt;/div&gt;&lt;div&gt;InternetCDR: Float&lt;/div&gt;&lt;div&gt;InternetTransfer: Float&lt;/div&gt;" style="shape=note;whiteSpace=wrap;html=1;backgroundOutline=1;darkOpacity=0.05;" parent="1" vertex="1">
          <mxGeometry x="1410" y="1340" width="140" height="100" as="geometry" />
        </mxCell>
        <mxCell id="zeJusp_OE90owRkpHKMH-40" value="&lt;div&gt;Każdy rekord to inny użytkownik&lt;/div&gt;&lt;div&gt;&lt;br&gt;&lt;/div&gt;Faker:&lt;br&gt;Dodanie imienia i nazwiska dla użytkownika&lt;div&gt;&lt;br&gt;&lt;/div&gt;&lt;div&gt;Użycie countrycode do ustalenia kraju pochodzenia użytkownika&lt;/div&gt;" style="shape=note;whiteSpace=wrap;html=1;backgroundOutline=1;darkOpacity=0.05;" parent="1" vertex="1">
          <mxGeometry x="450" y="1880" width="200" height="130" as="geometry" />
        </mxCell>
        <mxCell id="zeJusp_OE90owRkpHKMH-41" value="schema:&amp;nbsp;&lt;br&gt;GridID: Integer&lt;div&gt;TimeInterval: Timestamp&lt;/div&gt;&lt;div&gt;Name: Varchar&lt;/div&gt;&lt;div&gt;Surname: Varchar&lt;/div&gt;&lt;div&gt;Country: Varchar&lt;/div&gt;&lt;div&gt;CountryCode: Integer&lt;/div&gt;&lt;div&gt;&lt;div&gt;SmsinCDR: Float&lt;br&gt;&lt;/div&gt;&lt;div&gt;SmsoutCDR: Float&lt;br&gt;&lt;/div&gt;&lt;div&gt;CallinCDR: Float&lt;/div&gt;&lt;div&gt;&lt;span style=&quot;background-color: initial;&quot;&gt;CalloutCDR: Float&lt;/span&gt;&lt;/div&gt;&lt;/div&gt;" style="shape=note;whiteSpace=wrap;html=1;backgroundOutline=1;darkOpacity=0.05;" parent="1" vertex="1">
          <mxGeometry x="1933" y="1690" width="130" height="190" as="geometry" />
        </mxCell>
        <mxCell id="zeJusp_OE90owRkpHKMH-42" value="schema:&amp;nbsp;&lt;br&gt;&lt;div&gt;TimeInterval: Timestamp&lt;/div&gt;&lt;div&gt;SmsinCDR: Float&lt;br&gt;&lt;/div&gt;&lt;div&gt;SmsoutCDR: Float&lt;br&gt;&lt;/div&gt;&lt;div&gt;CallinCDR: Float&lt;/div&gt;&lt;div&gt;&lt;span style=&quot;background-color: initial;&quot;&gt;CalloutCDR: Float&lt;/span&gt;&lt;/div&gt;" style="shape=note;whiteSpace=wrap;html=1;backgroundOutline=1;darkOpacity=0.05;" parent="1" vertex="1">
          <mxGeometry x="1240" y="1625" width="140" height="100" as="geometry" />
        </mxCell>
        <mxCell id="zeJusp_OE90owRkpHKMH-44" value="Arytkuł o Milan mobile (dołączyć w pdf i wysłac)" style="shape=note;whiteSpace=wrap;html=1;backgroundOutline=1;darkOpacity=0.05;" parent="1" vertex="1">
          <mxGeometry x="810" y="1910" width="200" height="90" as="geometry" />
        </mxCell>
        <mxCell id="zeJusp_OE90owRkpHKMH-45" value="generowanie sztucznych danych" style="rounded=1;whiteSpace=wrap;html=1;fillColor=#fff2cc;strokeColor=#d6b656;" parent="1" vertex="1">
          <mxGeometry x="550" y="1820" width="120" height="60" as="geometry" />
        </mxCell>
        <mxCell id="zeJusp_OE90owRkpHKMH-46" style="edgeStyle=orthogonalEdgeStyle;rounded=0;orthogonalLoop=1;jettySize=auto;html=1;entryX=0;entryY=0.5;entryDx=0;entryDy=0;exitX=1;exitY=0.5;exitDx=0;exitDy=0;" parent="1" source="zeJusp_OE90owRkpHKMH-45" target="zeJusp_OE90owRkpHKMH-27" edge="1">
          <mxGeometry relative="1" as="geometry">
            <mxPoint x="620" y="1840" as="sourcePoint" />
            <mxPoint x="720" y="1840" as="targetPoint" />
          </mxGeometry>
        </mxCell>
        <mxCell id="zeJusp_OE90owRkpHKMH-47" style="edgeStyle=orthogonalEdgeStyle;rounded=0;orthogonalLoop=1;jettySize=auto;html=1;entryX=0;entryY=0.5;entryDx=0;entryDy=0;" parent="1" source="zeJusp_OE90owRkpHKMH-27" target="zeJusp_OE90owRkpHKMH-23" edge="1">
          <mxGeometry relative="1" as="geometry">
            <mxPoint x="970" y="1760" as="sourcePoint" />
            <mxPoint x="983" y="1895" as="targetPoint" />
            <Array as="points" />
          </mxGeometry>
        </mxCell>
        <mxCell id="zeJusp_OE90owRkpHKMH-48" style="rounded=0;orthogonalLoop=1;jettySize=auto;html=1;entryX=0;entryY=0.5;entryDx=0;entryDy=0;exitX=0.5;exitY=1;exitDx=0;exitDy=0;" parent="1" source="zeJusp_OE90owRkpHKMH-12" target="zeJusp_OE90owRkpHKMH-45" edge="1">
          <mxGeometry relative="1" as="geometry">
            <mxPoint x="630" y="1905" as="sourcePoint" />
            <mxPoint x="770" y="1885" as="targetPoint" />
            <Array as="points">
              <mxPoint x="507" y="1850" />
            </Array>
          </mxGeometry>
        </mxCell>
        <mxCell id="zeJusp_OE90owRkpHKMH-49" value="ID z datasetu do wygenerowania matchujacych danych" style="shape=note;whiteSpace=wrap;html=1;backgroundOutline=1;darkOpacity=0.05;" parent="1" vertex="1">
          <mxGeometry x="650" y="1690" width="130" height="80" as="geometry" />
        </mxCell>
        <mxCell id="zeJusp_OE90owRkpHKMH-50" style="rounded=0;orthogonalLoop=1;jettySize=auto;html=1;exitX=1;exitY=0;exitDx=0;exitDy=0;entryX=0;entryY=1;entryDx=0;entryDy=0;" parent="1" source="zeJusp_OE90owRkpHKMH-25" target="zeJusp_OE90owRkpHKMH-30" edge="1">
          <mxGeometry relative="1" as="geometry">
            <mxPoint x="1440" y="1745" as="sourcePoint" />
            <mxPoint x="1590" y="1670" as="targetPoint" />
          </mxGeometry>
        </mxCell>
        <mxCell id="zeJusp_OE90owRkpHKMH-51" value="Sprawdzenie powiązania zużycia vs mobile" style="rounded=1;whiteSpace=wrap;html=1;fillColor=#fff2cc;strokeColor=#d6b656;" parent="1" vertex="1">
          <mxGeometry x="2020" y="1540" width="170" height="60" as="geometry" />
        </mxCell>
        <mxCell id="zeJusp_OE90owRkpHKMH-52" style="edgeStyle=orthogonalEdgeStyle;rounded=0;orthogonalLoop=1;jettySize=auto;html=1;exitX=1;exitY=0.5;exitDx=0;exitDy=0;entryX=0;entryY=0;entryDx=0;entryDy=0;" parent="1" source="zeJusp_OE90owRkpHKMH-28" target="zeJusp_OE90owRkpHKMH-51" edge="1">
          <mxGeometry relative="1" as="geometry">
            <mxPoint x="1760" y="1480" as="sourcePoint" />
            <mxPoint x="1850" y="1480" as="targetPoint" />
            <Array as="points">
              <mxPoint x="1980" y="1480" />
              <mxPoint x="2020" y="1480" />
            </Array>
          </mxGeometry>
        </mxCell>
        <mxCell id="zeJusp_OE90owRkpHKMH-53" style="edgeStyle=orthogonalEdgeStyle;rounded=0;orthogonalLoop=1;jettySize=auto;html=1;exitX=1;exitY=0;exitDx=0;exitDy=0;entryX=0;entryY=0.75;entryDx=0;entryDy=0;" parent="1" source="zeJusp_OE90owRkpHKMH-33" target="zeJusp_OE90owRkpHKMH-51" edge="1">
          <mxGeometry relative="1" as="geometry">
            <mxPoint x="1770" y="1490" as="sourcePoint" />
            <mxPoint x="1860" y="1490" as="targetPoint" />
            <Array as="points">
              <mxPoint x="2020" y="1628" />
            </Array>
          </mxGeometry>
        </mxCell>
        <mxCell id="zeJusp_OE90owRkpHKMH-54" value="Czy zużycie internetu ma powiązanie z aktywnością teleinformatyczną" style="shape=note;whiteSpace=wrap;html=1;backgroundOutline=1;darkOpacity=0.05;" parent="1" vertex="1">
          <mxGeometry x="2110" y="1602.5" width="160" height="90" as="geometry" />
        </mxCell>
        <mxCell id="zeJusp_OE90owRkpHKMH-55" value="dane 2 gotowe do prezentacji" style="rounded=0;whiteSpace=wrap;html=1;fillColor=#d5e8d4;strokeColor=#82b366;" parent="1" vertex="1">
          <mxGeometry x="2250" y="1537.5" width="140" height="65" as="geometry" />
        </mxCell>
        <mxCell id="zeJusp_OE90owRkpHKMH-56" style="edgeStyle=orthogonalEdgeStyle;rounded=0;orthogonalLoop=1;jettySize=auto;html=1;exitX=1;exitY=0.5;exitDx=0;exitDy=0;entryX=0;entryY=0.5;entryDx=0;entryDy=0;" parent="1" source="zeJusp_OE90owRkpHKMH-51" target="zeJusp_OE90owRkpHKMH-55" edge="1">
          <mxGeometry relative="1" as="geometry">
            <mxPoint x="2008" y="1638" as="sourcePoint" />
            <mxPoint x="2030" y="1595" as="targetPoint" />
            <Array as="points">
              <mxPoint x="2220" y="1570" />
              <mxPoint x="2220" y="1570" />
            </Array>
          </mxGeometry>
        </mxCell>
        <mxCell id="zeJusp_OE90owRkpHKMH-57" value="schema:&amp;nbsp;&lt;br&gt;GridID: Integer&lt;div&gt;TimeInterval: Timestamp&lt;/div&gt;&lt;div&gt;Name: Varchar&lt;/div&gt;&lt;div&gt;Surname: Varchar&lt;/div&gt;&lt;div&gt;Country: Varchar&lt;/div&gt;&lt;div&gt;CountryCode: Integer&lt;/div&gt;&lt;div&gt;InternetCDR: Float&lt;/div&gt;&lt;div&gt;InternetTransfer: Float&lt;/div&gt;" style="shape=note;whiteSpace=wrap;html=1;backgroundOutline=1;darkOpacity=0.05;" parent="1" vertex="1">
          <mxGeometry x="1980" y="1310" width="142" height="150" as="geometry" />
        </mxCell>
      </root>
    </mxGraphModel>
  </diagram>
</mxfile>
